<svg width="24" height="24" viewBox="0 0 24 24" fill="none" xmlns="http://www.w3.org/2000/svg">
<path d="M11.5327 2.10936C10.5257 2.29329 9.80185 2.88617 9.49647 3.77724C9.4075 4.03667 9.3888 4.184 9.39145 4.60577C9.39526 5.22915 9.47487 5.55429 9.77967 6.19138C10.2402 7.15432 10.8566 7.88562 12.5287 9.45254C13.1725 10.056 13.9231 10.7626 14.1967 11.0228L14.694 11.4958L16.2585 9.9629C18.9119 7.36292 19.5228 6.67836 19.8674 5.91941C20.3221 4.91772 20.154 3.8318 19.4191 3.0251C18.8831 2.43665 18.2087 2.11435 17.4312 2.07503C16.8757 2.04696 16.5578 2.11248 16.0784 2.35382C15.7726 2.50776 15.6091 2.63676 15.1951 3.05028L14.6872 3.55772L14.2121 3.10242C13.6913 2.60347 13.2976 2.3431 12.854 2.20454C12.5184 2.09966 11.8495 2.05153 11.5327 2.10936ZM0 15.8683V20.1588H2.38754H4.77509V15.8683V11.5779H2.38754H0V15.8683ZM5.74865 15.8609V19.4494L7.73054 20.4754C9.77983 21.5362 10.2394 21.7326 10.9743 21.8614C11.7708 22.0012 12.7663 21.9269 13.5341 21.6704C13.9111 21.5445 16.7128 20.1608 17.7791 19.574C19.3303 18.7203 21.7814 17.1679 22.9159 16.3207C23.7031 15.7327 23.9409 14.9325 23.5483 14.1916C23.3043 13.7311 22.9096 13.4528 22.3576 13.3522C21.7925 13.2491 21.6484 13.2998 19.5559 14.3384L17.669 15.2749L17.4772 15.7231C17.3718 15.9698 17.2029 16.2818 17.1017 16.4166C16.6543 17.0134 15.8843 17.4158 14.9458 17.5433C14.3383 17.6258 12.9745 17.6879 12.7765 17.6422C12.4946 17.5771 12.355 17.4066 12.355 17.1275C12.355 16.9371 12.3775 16.8737 12.4836 16.7671L12.6121 16.6378L13.7585 16.6355C15.0259 16.6329 15.1721 16.61 15.7856 16.3164C16.1878 16.1239 16.5109 15.8401 16.6449 15.5619C16.8434 15.1491 16.698 14.655 16.2978 14.3826C15.9705 14.1599 15.8695 14.147 14.4357 14.1449L13.0857 14.1428L12.4654 13.767C11.5961 13.2403 10.6562 12.7855 9.89694 12.5239L9.24886 12.3007L7.49874 12.2864L5.74865 12.2722V15.8609Z" fill="white"/>
</svg>
