<svg width="40" height="40" viewBox="0 0 40 40" fill="none" xmlns="http://www.w3.org/2000/svg">
<rect x="0.5" y="0.5" width="39" height="39" rx="9.5" stroke="#2B9E76"/>
<path d="M25.715 23.1501L26.665 23.4661C26.7292 23.2739 26.7336 23.0668 26.6774 22.8721C26.6213 22.6774 26.5074 22.5043 26.3507 22.3759C26.194 22.2474 26.002 22.1695 25.8001 22.1526C25.5982 22.1357 25.3959 22.1805 25.22 22.2811L25.715 23.1501ZM17 14.0351L17.846 14.5691C17.9552 14.3963 18.0089 14.1943 17.9998 13.9901C17.9907 13.7859 17.9192 13.5894 17.795 13.427C17.6708 13.2647 17.4998 13.1443 17.3051 13.0821C17.1104 13.0199 16.9013 13.0188 16.706 13.0791L17 14.0351ZM25.221 22.2811C24.3924 22.7535 23.4548 23.001 22.501 22.9991V24.9991C23.8019 25.0011 25.0808 24.6632 26.211 24.0191L25.221 22.2811ZM22.501 22.9991C21.7787 22.9992 21.0635 22.8571 20.3962 22.5808C19.7288 22.3045 19.1224 21.8995 18.6116 21.3889C18.1008 20.8783 17.6956 20.272 17.4191 19.6048C17.1425 18.9375 17.0001 18.2224 17 17.5001H15C15 19.4892 15.7902 21.3969 17.1967 22.8034C18.6032 24.2099 20.5109 25.0001 22.5 25.0001V23.0001L22.501 22.9991ZM17 17.5001C17 16.4211 17.31 15.4181 17.845 14.5701L16.153 13.5001C15.3974 14.6972 14.9976 16.0845 15 17.5001H17ZM13 20.8681C13 18.0891 14.815 15.7501 17.292 14.9901L16.706 13.0791C13.397 14.0931 11 17.2011 11 20.8671H13V20.8681ZM19.042 27.0041C15.718 27.0031 13 24.2681 13 20.8671H11C11 25.3471 14.588 29.0031 19.042 29.0031V27.0031V27.0041ZM24.767 22.8341C23.957 25.2671 21.693 27.0041 19.042 27.0041V29.0041C22.594 29.0041 25.595 26.6771 26.664 23.4671L24.767 22.8351V22.8341Z" fill="#2B9E76"/>
<path d="M25 11C25.2652 11 25.5196 11.1054 25.7071 11.2929C25.8946 11.4804 26 11.7348 26 12C26 12.5304 26.2107 13.0391 26.5858 13.4142C26.9609 13.7893 27.4696 14 28 14C28.2652 14 28.5196 14.1054 28.7071 14.2929C28.8946 14.4804 29 14.7348 29 15C29 15.2652 28.8946 15.5196 28.7071 15.7071C28.5196 15.8946 28.2652 16 28 16C27.4696 16 26.9609 16.2107 26.5858 16.5858C26.2107 16.9609 26 17.4696 26 18C26 18.2652 25.8946 18.5196 25.7071 18.7071C25.5196 18.8946 25.2652 19 25 19C24.7348 19 24.4804 18.8946 24.2929 18.7071C24.1054 18.5196 24 18.2652 24 18C24 17.4696 23.7893 16.9609 23.4142 16.5858C23.0391 16.2107 22.5304 16 22 16C21.7348 16 21.4804 15.8946 21.2929 15.7071C21.1054 15.5196 21 15.2652 21 15C21 14.7348 21.1054 14.4804 21.2929 14.2929C21.4804 14.1054 21.7348 14 22 14C22.5304 14 23.0391 13.7893 23.4142 13.4142C23.7893 13.0391 24 12.5304 24 12C24 11.7348 24.1054 11.4804 24.2929 11.2929C24.4804 11.1054 24.7348 11 25 11Z" fill="#2B9E76"/>
</svg>
