<svg width="156" height="46" viewBox="0 0 156 46" fill="none" xmlns="http://www.w3.org/2000/svg">
<path d="M150 46H5.76923C2.5976 46 0 43.4111 0 40.25V5.75001C0 2.58895 2.5976 1.18794e-05 5.76923 1.18794e-05H150C153.172 1.18794e-05 155.769 2.58895 155.769 5.75001V40.25C155.769 43.4111 153.172 46 150 46Z" fill="#E7FFF7"/>
<path d="M150 0.921447C152.671 0.921447 154.845 3.08776 154.845 5.75001V40.25C154.845 42.9123 152.671 45.0786 150 45.0786H5.76923C3.09808 45.0786 0.924519 42.9123 0.924519 40.25V5.75001C0.924519 3.08776 3.09808 0.921447 5.76923 0.921447H150ZM150 1.18794e-05H5.76923C2.5976 1.18794e-05 0 2.58895 0 5.75001V40.25C0 43.4111 2.5976 46 5.76923 46H150C153.172 46 155.769 43.4111 155.769 40.25V5.75001C155.769 2.58895 153.172 1.18794e-05 150 1.18794e-05Z" fill="black"/>
<path d="M54.7126 11.7803C54.7126 12.7406 54.4241 13.5096 53.8558 14.0832C53.2025 14.7631 52.3515 15.1053 51.3087 15.1053C50.3121 15.1053 49.4611 14.7574 48.763 14.0717C48.0635 13.376 47.7145 12.5221 47.7145 11.5C47.7145 10.478 48.0635 9.62409 48.763 8.93409C49.4611 8.24265 50.3121 7.89478 51.3087 7.89478C51.8049 7.89478 52.2779 7.99684 52.7294 8.18659C53.1794 8.37778 53.5457 8.63652 53.8111 8.95565L53.2082 9.56228C52.7452 9.01746 52.115 8.74865 51.3087 8.74865C50.5818 8.74865 49.9515 9.00165 49.4164 9.51196C48.8871 10.0237 48.6217 10.6864 48.6217 11.5C48.6217 12.3136 48.8871 12.9821 49.4164 13.4938C49.9515 13.9984 50.5818 14.2571 51.3087 14.2571C52.0803 14.2571 52.7294 13.9984 53.2414 13.4881C53.5789 13.1503 53.7707 12.6845 53.8212 12.0894H51.3087V11.2585H54.6606C54.701 11.4382 54.7126 11.6121 54.7126 11.7803Z" fill="#333333" stroke="#333333" stroke-width="0.16" stroke-miterlimit="10"/>
<path d="M60.0305 8.89954H56.8819V11.0845H59.7204V11.9154H56.8819V14.1004H60.0305V14.9471H55.9906V8.05286H60.0305V8.89954Z" fill="#333333" stroke="#333333" stroke-width="0.16" stroke-miterlimit="10"/>
<path d="M63.7833 14.9471H62.8919V8.89954H60.9607V8.05286H65.716V8.89954H63.7833V14.9471Z" fill="#333333" stroke="#333333" stroke-width="0.16" stroke-miterlimit="10"/>
<path d="M69.1575 14.9471V8.05286H70.0474V14.9471H69.1575Z" fill="#333333" stroke="#333333" stroke-width="0.16" stroke-miterlimit="10"/>
<path d="M73.9917 14.9471H73.1076V8.89954H71.1691V8.05286H75.9302V8.89954H73.9917V14.9471Z" fill="#333333" stroke="#333333" stroke-width="0.16" stroke-miterlimit="10"/>
<path d="M84.9337 14.0602C84.2515 14.7574 83.4063 15.1053 82.3982 15.1053C81.3842 15.1053 80.539 14.7574 79.8568 14.0602C79.176 13.3645 78.8371 12.5106 78.8371 11.5C78.8371 10.4895 79.176 9.63559 79.8568 8.93984C80.539 8.24265 81.3842 7.89478 82.3982 7.89478C83.4006 7.89478 84.2458 8.24265 84.928 8.94559C85.6145 9.64709 85.9534 10.4952 85.9534 11.5C85.9534 12.5106 85.6145 13.3645 84.9337 14.0602ZM80.5159 13.4823C81.0294 13.9984 81.6539 14.2571 82.3982 14.2571C83.1366 14.2571 83.7669 13.9984 84.2746 13.4823C84.7866 12.9663 85.0462 12.3036 85.0462 11.5C85.0462 10.6965 84.7866 10.0338 84.2746 9.51771C83.7669 9.00165 83.1366 8.7429 82.3982 8.7429C81.6539 8.7429 81.0294 9.00165 80.5159 9.51771C80.0039 10.0338 79.7443 10.6965 79.7443 11.5C79.7443 12.3036 80.0039 12.9663 80.5159 13.4823Z" fill="#333333" stroke="#333333" stroke-width="0.16" stroke-miterlimit="10"/>
<path d="M87.2036 14.9471V8.05286H88.2853L91.6487 13.4147H91.6877L91.6487 12.0894V8.05286H92.5387V14.9471H91.6098L88.0877 9.32073H88.0487L88.0877 10.6519V14.9471H87.2036Z" fill="#333333" stroke="#333333" stroke-width="0.16" stroke-miterlimit="10"/>
<path d="M30.1812 29.1127L16.3086 37.0615L16.2652 37.0831C15.7731 37.3777 15.1942 37.543 14.5791 37.543C13.0377 37.543 11.7423 36.5009 11.366 35.0923C11.3612 35.0875 11.3588 35.0851 11.3588 35.0851L23.6899 22.0911L30.1812 29.1127Z" fill="#EA4335"/>
<path d="M37.895 22.7811C37.895 24.0388 37.1858 25.1384 36.1365 25.699L30.1808 29.1128L23.4073 22.3858L30.1591 16.4206L36.1438 19.8703L36.1582 19.8775C37.1931 20.4381 37.895 21.5305 37.895 22.7811Z" fill="#FBBC04"/>
<path d="M24.1094 22.4217L11.3585 35.0851C11.2862 34.812 11.25 34.5317 11.25 34.2371V11.2747C11.25 10.9801 11.2862 10.6926 11.3585 10.4195L24.1094 22.4217Z" fill="#4285F4"/>
<path d="M11.3588 10.4195C11.7423 9.00366 13.0377 7.96155 14.5791 7.96155C15.2086 7.96155 15.7948 8.14122 16.3014 8.43589L30.1595 16.4206L23.7768 22.7523L11.3588 10.4195Z" fill="#34A853"/>
<path d="M78.6174 25.0154C75.9073 25.0154 73.6934 27.071 73.6934 29.9072C73.6934 32.7204 75.9073 34.7976 78.6174 34.7976C81.3333 34.7976 83.5472 32.7204 83.5472 29.9072C83.5472 27.071 81.3333 25.0154 78.6174 25.0154ZM78.6174 32.8713C77.1304 32.8713 75.8511 31.648 75.8511 29.9072C75.8511 28.1434 77.1304 26.9417 78.6174 26.9417C80.1045 26.9417 81.3896 28.1434 81.3896 29.9072C81.3896 31.648 80.1045 32.8713 78.6174 32.8713ZM67.8737 25.0154C65.1578 25.0154 62.9497 27.071 62.9497 29.9072C62.9497 32.7204 65.1578 34.7976 67.8737 34.7976C70.5881 34.7976 72.7977 32.7204 72.7977 29.9072C72.7977 27.071 70.5881 25.0154 67.8737 25.0154ZM67.8737 32.8713C66.3852 32.8713 65.1016 31.648 65.1016 29.9072C65.1016 28.1434 66.3852 26.9417 67.8737 26.9417C69.3607 26.9417 70.64 28.1434 70.64 29.9072C70.64 31.648 69.3607 32.8713 67.8737 32.8713ZM55.0891 26.5147V28.5933H60.0694C59.9237 29.7548 59.5343 30.6087 58.9372 31.2038C58.2102 31.9226 57.078 32.7204 55.0891 32.7204C52.0242 32.7204 49.6242 30.2551 49.6242 27.2004C49.6242 24.1457 52.0242 21.6804 55.0891 21.6804C56.7463 21.6804 57.9521 22.3258 58.842 23.1625L60.3117 21.6977C59.067 20.5132 57.4112 19.6032 55.0891 19.6032C50.8862 19.6032 47.354 23.0115 47.354 27.2004C47.354 31.3893 50.8862 34.7976 55.0891 34.7976C57.3607 34.7976 59.067 34.0558 60.4083 32.6643C61.7828 31.2944 62.2112 29.3682 62.2112 27.8128C62.2112 27.3298 62.1708 26.8856 62.0987 26.5147H55.0891ZM107.367 28.1262C106.962 27.0322 105.711 25.0154 103.164 25.0154C100.64 25.0154 98.5386 26.9977 98.5386 29.9072C98.5386 32.6471 100.618 34.7976 103.406 34.7976C105.661 34.7976 106.962 33.4276 107.497 32.6298L105.824 31.5187C105.266 32.3323 104.505 32.8713 103.406 32.8713C102.315 32.8713 101.531 32.3725 101.029 31.3893L107.593 28.6825L107.367 28.1262ZM100.675 29.7548C100.618 27.8688 102.144 26.9028 103.238 26.9028C104.094 26.9028 104.821 27.3298 105.064 27.9407L100.675 29.7548ZM95.3395 34.5H97.4972V20.125H95.3395V34.5ZM91.8059 26.105H91.7338C91.2492 25.5329 90.3247 25.0154 89.1535 25.0154C86.6958 25.0154 84.4487 27.1659 84.4487 29.923C84.4487 32.6643 86.6958 34.7976 89.1535 34.7976C90.3247 34.7976 91.2492 34.2758 91.7338 33.6864H91.8059V34.3879C91.8059 36.2581 90.8035 37.2629 89.1867 37.2629C87.8684 37.2629 87.0506 36.3141 86.7131 35.5163L84.8367 36.2969C85.3775 37.5935 86.8097 39.1891 89.1867 39.1891C91.7165 39.1891 93.8511 37.7056 93.8511 34.0961V25.313H91.8059V26.105ZM89.3381 32.8713C87.8511 32.8713 86.6064 31.6308 86.6064 29.923C86.6064 28.1995 87.8511 26.9417 89.3381 26.9417C90.8035 26.9417 91.9588 28.1995 91.9588 29.923C91.9588 31.6308 90.8035 32.8713 89.3381 32.8713ZM117.469 20.125H112.308V34.5H114.46V29.0533H117.469C119.859 29.0533 122.203 27.3298 122.203 24.5885C122.203 21.8486 119.853 20.125 117.469 20.125ZM117.525 27.0538H114.46V22.1246H117.525C119.132 22.1246 120.049 23.4543 120.049 24.5885C120.049 25.7011 119.132 27.0538 117.525 27.0538ZM130.827 24.9881C129.273 24.9881 127.656 25.6723 126.991 27.1889L128.901 27.9867C129.312 27.1889 130.067 26.9302 130.866 26.9302C131.983 26.9302 133.115 27.5986 133.132 28.7788V28.9297C132.743 28.7055 131.909 28.3734 130.884 28.3734C128.827 28.3734 126.731 29.5018 126.731 31.6078C126.731 33.534 128.416 34.7746 130.31 34.7746C131.758 34.7746 132.557 34.1234 133.059 33.3658H133.132V34.477H135.211V28.9628C135.211 26.4141 133.301 24.9881 130.827 24.9881ZM130.568 32.8656C129.864 32.8656 128.883 32.5177 128.883 31.648C128.883 30.5354 130.106 30.1085 131.165 30.1085C132.113 30.1085 132.557 30.3169 133.132 30.5915C132.964 31.9226 131.814 32.8656 130.568 32.8656ZM142.783 25.3029L140.309 31.5345H140.236L137.678 25.3029H135.358L139.2 34.0113L137.008 38.8571H139.256L145.177 25.3029H142.783ZM123.385 34.5H125.543V20.125H123.385V34.5Z" fill="#333333"/>
</svg>
