<svg width="101" height="41" viewBox="0 0 101 41" fill="none" xmlns="http://www.w3.org/2000/svg">
<mask id="mask0_26_107" style="mask-type:luminance" maskUnits="userSpaceOnUse" x="0" y="0" width="118" height="41">
<path d="M0.853973 0H117.758V40.9072H0.853973V0Z" fill="white"/>
</mask>
<g mask="url(#mask0_26_107)">
<path d="M14.4467 8.14287C14.4673 7.82095 14.5792 7.10151 15.6128 6.44937C16.6463 5.79752 17.6151 5.89057 18.8077 5.92881C20.0003 5.96675 20.2359 5.64427 21.0339 5.20911C21.8319 4.77395 22.4797 4.97286 22.9597 5.02028C23.4397 5.06771 24.1052 4.5125 24.4056 4.8783C24.7089 5.24379 24.6588 5.74861 25.0357 6.40194C25.4126 7.05557 27.3885 13.3775 30.7307 13.3775C34.07 13.3775 36.7261 9.22895 37.4534 8.00144C38.1808 6.77363 40.8369 5.55979 43.169 5.33183C45.5012 5.10417 47.0678 2.49322 50.254 2.80477C53.4372 3.11632 53.5785 4.96278 56.5673 5.53103C59.5532 6.09899 63.4726 8.22913 64.4296 13.368C65.3896 18.5072 65.3042 20.3536 67.5039 21.0917C69.7006 21.8301 70.2925 20.9495 70.2925 20.9495C70.2925 20.9495 70.5722 23.6055 67.7277 23.4768C65.6163 23.382 64.7388 22.2144 64.3766 21.2756C64.6888 22.5609 65.2807 24.5715 66.1228 25.6034C67.4185 27.1934 67.8985 27.4493 67.6717 29.1247C67.445 30.8001 66.915 35.5987 67.0534 36.8475C67.1888 38.0964 67.7247 38.8354 67.4185 39.2332C67.1122 39.6313 64.2912 39.8859 64.0645 39.2614C63.8378 38.6365 65.5309 38.2674 65.6988 37.0752C65.8696 35.8833 65.5574 29.2661 64.995 28.2704C64.4296 27.2747 62.4007 24.6359 62.2034 24.1533C62.0091 23.6707 60.5692 22.5345 60.5692 22.5345C60.5692 22.5345 59.8124 23.9262 59.4973 26.3442C59.1852 28.7622 59.6387 29.6096 58.9113 30.662C58.181 31.7143 56.429 34.0697 55.416 35.9722C54.4001 37.8744 54.2587 38.7263 54.2587 38.9818C54.2587 39.2376 54.3736 40.118 53.6698 40.118C52.9689 40.118 50.9636 39.7481 51.0225 39.2655C51.0785 38.7829 52.5155 38.5034 52.8247 37.9313C53.1368 37.3589 55.9548 32.5078 56.1227 31.7694C56.2935 31.0313 56.2641 29.5548 56.744 27.875C57.2211 26.1954 56.8265 23.3879 56.744 22.4227C56.6586 21.4576 56.161 20.7482 56.376 19.7543C56.4466 19.4374 56.5379 19.1261 56.6498 18.8229C56.6586 18.8072 56.6586 18.7897 56.6527 18.7734C56.6468 18.7571 56.638 18.7432 56.6233 18.734C56.6086 18.7245 56.5938 18.7206 56.5762 18.7227C56.5585 18.7248 56.5438 18.7325 56.532 18.7449C55.6515 19.6668 54.0614 20.7091 51.2463 21.0894C49.079 21.3745 46.8941 21.5077 44.7091 21.4872C44.7091 21.4872 43.0483 23.4158 41.6319 25.1828C41.95 27.2848 42.2385 29.6096 42.106 30.4319C41.9853 31.1742 41.7556 32.6949 41.5495 34.2161C41.838 34.592 42.1502 34.9498 42.48 35.288C43.2132 35.9654 44.9417 36.1195 43.5813 38.0421C42.8746 39.0361 42.2562 38.8938 42.003 38.3258C41.7468 37.7576 42.1708 37.5874 41.4641 36.48C41.4081 36.3878 41.3492 36.2956 41.2962 36.2031C41.1784 37.2193 41.1048 38.0371 41.1284 38.3451C41.205 39.2537 41.5819 40.0487 41.2432 40.5031C40.9046 40.9578 38.5724 41.1466 38.5724 40.4269C38.5724 39.7075 39.4382 39.6322 39.5883 38.9134C39.6796 38.4797 39.8799 36.0433 39.9977 33.9909C39.8033 33.6947 39.5824 33.3909 39.3263 33.0731C38.3103 31.8237 36.7614 31.3123 36.5906 30.2615C36.4228 29.211 37.1295 28.4669 38.7903 25.8889C38.8904 25.7341 38.9847 25.5806 39.0701 25.4282L37.4004 18.7289C37.3062 18.6717 37.2031 18.6255 37.1001 18.5908C36.5111 18.4215 33.3132 20.8531 28.2749 18.7526C23.2365 16.6521 21.8113 11.0855 21.8113 11.0855C21.8113 11.0855 20.2506 11.2278 18.4573 9.70383C18.4573 9.70383 17.0174 9.04105 16.7553 9.05972C16.4932 9.0784 15.1858 9.39054 14.8383 9.08848C14.6646 8.937 14.7558 8.69037 14.7558 8.69037C14.5968 8.52111 14.429 8.46449 14.4467 8.14287ZM38.8963 30.3759C39.0082 30.696 39.4912 31.4419 40.0713 32.2639C40.0948 31.8809 40.0919 31.497 40.0683 31.1143C39.9829 30.5214 39.7532 28.8547 39.6237 27.958C39.0524 29.0654 38.6283 29.6182 38.8963 30.3759Z" fill="#E1EEED"/>
<path d="M37.0148 5.87042C36.6909 5.16848 36.6555 4.34648 36.9882 3.65224C37.0736 3.47172 37.2297 3.34988 37.5477 3.34988C38.4724 3.34988 37.6479 1.95044 39.1349 1.91753C40.622 1.88433 42.9365 3.41599 45.5484 3.0493C48.1604 2.68292 47.5655 0.618879 48.6227 0.684686C49.6798 0.75079 51.5644 2.98349 52.3919 3.0164C53.2193 3.0493 56.7235 -0.280484 57.5833 0.0192053C58.4432 0.318895 56.591 2.7834 56.856 3.51588C57.121 4.24836 59.7329 4.44726 60.9226 4.78579C62.1122 5.1246 61.2524 6.58393 60.7901 7.21739C60.3278 7.85057 37.9129 7.81677 37.9129 7.81677L37.0148 5.87042Z" fill="#E1EEED"/>
<path d="M65.6841 12.0021C66.4498 11.5189 67.1653 11.5888 68.0487 11.617C68.9321 11.6452 69.1059 11.4068 69.6977 11.0846C70.2896 10.7627 70.7666 10.9097 71.1229 10.9444C71.4763 10.9794 71.971 10.5668 72.1919 10.8398C72.4157 11.1131 72.3803 11.4842 72.6601 11.9674C72.9369 12.4506 74.3974 17.1294 76.871 17.1294C79.3474 17.1294 81.3086 14.0611 81.8504 13.151C82.3922 12.2413 84.3563 11.3437 86.079 11.1759C87.8016 11.0084 88.9618 9.07482 91.3205 9.30574C93.6762 9.53636 93.7822 10.9029 95.9907 11.3229C98.2022 11.743 101.103 13.3188 101.812 17.122C102.522 20.9252 102.46 22.2911 104.086 22.8371C105.714 23.3835 106.15 22.7325 106.15 22.7325C106.15 22.7325 106.356 24.6972 104.251 24.6024C102.687 24.528 102.042 23.6686 101.771 22.9753C102.001 23.9268 102.44 25.4152 103.064 26.1782C104.021 27.3553 104.377 27.5438 104.209 28.7841C104.044 30.0243 103.647 33.5744 103.75 34.4992C103.856 35.4241 104.251 35.9695 104.021 36.2642C103.794 36.5588 101.706 36.7474 101.539 36.2849C101.374 35.8225 102.625 35.5495 102.749 34.667C102.875 33.7846 102.646 28.8887 102.228 28.1533C101.812 27.4176 100.314 25.4641 100.166 25.1099C100.019 24.7559 98.956 23.912 98.956 23.912C98.956 23.912 98.3907 24.9415 98.1639 26.7272C97.9342 28.5132 98.267 29.144 97.7193 29.9188C97.1745 30.6937 95.8848 32.4426 95.1339 33.8483C94.383 35.254 94.2799 35.8865 94.2799 36.0751C94.2799 36.2636 94.3623 36.9151 93.8382 36.9151C93.3111 36.9151 91.8358 36.6421 91.877 36.2849C91.9183 35.928 92.9813 35.7179 93.211 35.2972C93.4407 34.8763 95.5285 31.2839 95.6521 30.7376C95.7787 30.1912 95.7552 29.0989 96.1115 27.8592C96.4678 26.6196 96.1733 24.5392 96.1115 23.8251C96.0496 23.111 95.6815 22.5858 95.8406 21.85C95.8906 21.6155 95.9584 21.3852 96.0438 21.1605C96.0467 21.149 96.0467 21.1359 96.0438 21.1241C96.0408 21.1122 96.032 21.1018 96.0231 21.095C96.0113 21.0882 95.9996 21.0852 95.9878 21.0867C95.9731 21.0882 95.9642 21.0938 95.9554 21.1027C95.3017 21.7848 94.1268 22.5558 92.0449 22.8371C90.44 23.0497 88.8234 23.1487 87.2038 23.1342C87.2038 23.1342 85.9788 24.5623 84.9276 25.8693C85.1632 27.4279 85.3781 29.1454 85.278 29.7534C85.1897 30.3027 85.0189 31.4279 84.8687 32.5532C85.0837 32.8292 85.3134 33.0921 85.5607 33.3405C86.1025 33.8447 87.3835 33.9559 86.3705 35.3787C85.8493 36.1136 85.3928 36.009 85.2044 35.5889C85.0159 35.1689 85.3281 35.0426 84.8069 34.2233C84.7627 34.1542 84.7215 34.0857 84.6803 34.0175C84.5919 34.7678 84.5389 35.3752 84.5566 35.6028C84.6125 36.271 84.8923 36.8647 84.642 37.1994C84.3917 37.5344 82.6661 37.6761 82.6661 37.1437C82.6661 36.6116 83.3051 36.5553 83.417 36.0232C83.4847 35.7024 83.6319 33.8996 83.7203 32.381C83.5731 32.1619 83.414 31.9354 83.2226 31.7018C82.4717 30.777 81.3233 30.3984 81.1996 29.6236C81.073 28.8487 81.5972 28.295 82.8251 26.3875C82.8987 26.273 82.9694 26.1595 83.0312 26.0466L81.8033 21.0938C81.7326 21.0517 81.659 21.0177 81.5824 20.9922C81.1437 20.8659 78.782 22.6658 75.0541 21.1107C71.3261 19.556 70.2719 15.438 70.2719 15.438C70.2719 15.438 69.1176 15.5432 67.7896 14.4153C67.7896 14.4153 66.7265 13.9253 66.5293 13.9395C66.3349 13.9535 65.369 14.1835 65.1128 13.9603C64.9833 13.8482 65.051 13.6632 65.051 13.6632C64.9391 13.537 64.8125 13.4949 64.8272 13.2565C64.8449 13.0182 64.9215 12.4838 65.6841 12.0021ZM82.9135 29.7081C82.9988 29.9449 83.3551 30.4963 83.7851 31.1051C83.8027 30.8217 83.8027 30.5378 83.7851 30.2544C83.7262 29.8136 83.5524 28.5822 83.4582 27.9185C83.0283 28.7387 82.7162 29.1478 82.9135 29.7081Z" fill="#E1EEED"/>
<path d="M6.74348 11.6926C7.01144 11.3843 5.92485 11.2246 5.81295 10.7562C5.704 10.2881 5.59505 8.93672 5.59505 8.93672C5.59505 8.93672 5.56857 7.20143 6.06033 6.89818C6.55209 6.59523 8.63103 6.0169 9.37014 7.3944C10.1063 8.77191 8.90487 10.0391 8.87542 10.8656C8.84892 11.6917 10.3006 14.0335 10.2712 15.797C10.2447 17.5607 10.5451 25.6618 10.492 26.7643C10.4361 27.8667 9.56154 27.4526 9.50559 28.0866C9.45258 28.7207 9.87663 33.4873 10.3684 34.8511C10.8602 36.215 8.03031 36.8348 6.71699 36.6697C5.40366 36.5046 1.21926 36.5452 0.889456 35.8842C0.562597 35.2229 2.57088 32.2055 2.77701 30.0567C2.98313 27.9079 4.09032 23.1143 4.13155 21.1087C4.17278 19.103 4.49963 17.8637 4.23461 17.2853C3.96664 16.7073 2.67393 15.7149 2.83883 14.5991C3.00373 13.4833 4.31705 15.1976 4.89126 15.3609C5.46548 15.5246 5.76585 12.8152 6.74348 11.6926Z" fill="#E1EEED"/>
<path d="M3.02132 14.2766C9.24048 17.2963 13.8489 15.7819 16.6258 13.9802C19.6411 12.0228 21.2077 9.31347 21.2224 9.2865L21.402 9.39055C21.3873 9.41782 19.8001 12.1666 16.7465 14.1521C14.9502 15.3188 13.0038 15.9994 10.9631 16.1737C10.6127 16.2043 10.2593 16.2194 9.90303 16.2188C7.67096 16.2188 5.32996 15.6313 2.9271 14.4645L3.02132 14.2766Z" fill="#E1EEED"/>
<path d="M53.7464 11.4448C58.3666 16.0658 62.7512 16.4177 65.6193 15.9063C68.726 15.3473 70.7696 13.673 70.7902 13.6558L70.8844 13.7708C70.8638 13.788 68.7967 15.4839 65.6547 16.051C63.8172 16.3856 61.9297 16.2683 60.1481 15.7089C57.8925 15.0096 55.7046 13.6105 53.6434 11.5524L53.7464 11.4448Z" fill="#E1EEED"/>
</g>
</svg>
