<svg width="21" height="21" viewBox="0 0 21 21" fill="none" xmlns="http://www.w3.org/2000/svg">
<path d="M18.9444 9.16574V17.3611C18.9444 18.8185 17.763 20 16.3055 20H13.1389C12.8474 20 12.6111 19.7637 12.6111 19.4722V13.1389C12.6111 12.8474 12.3748 12.6111 12.0833 12.6111H8.91667C8.62519 12.6111 8.38889 12.8474 8.38889 13.1389V19.4722C8.38889 19.7637 8.1526 20 7.86112 20H4.69445C3.23704 20 2.05557 18.8185 2.05557 17.3611V9.16574L1.8633 9.32407C1.6383 9.50937 1.30568 9.47718 1.12038 9.25218C0.935088 9.02717 0.967277 8.69456 1.19228 8.50926L10.1645 1.12037C10.3594 0.959877 10.6406 0.959877 10.8355 1.12037L19.8077 8.50926C20.0327 8.69456 20.0649 9.02717 19.8796 9.25218C19.6943 9.47718 19.3617 9.50937 19.1367 9.32407L18.9444 9.16574ZM17.896 8.30228L10.5 2.21149L3.10405 8.30228C3.1087 8.33046 3.11112 8.35939 3.11112 8.38889V17.3611C3.11112 18.2356 3.82 18.9444 4.69445 18.9444H7.33334V13.1389C7.33334 12.2644 8.04222 11.5556 8.91667 11.5556H12.0833C12.9578 11.5556 13.6667 12.2644 13.6667 13.1389V18.9444H16.3055C17.18 18.9444 17.8889 18.2356 17.8889 17.3611V8.38889C17.8889 8.35939 17.8913 8.33046 17.896 8.30228Z" fill="white" stroke="white"/>
</svg>
