<svg width="140" height="47" viewBox="0 0 140 47" fill="none" xmlns="http://www.w3.org/2000/svg">
<path d="M128.851 3.00221e-05H11.155C10.726 3.00221e-05 10.3021 3.00222e-05 9.87425 0.00236991C9.51607 0.00470979 9.16075 0.0115072 8.79913 0.0172282C8.01353 0.0264728 7.22978 0.0955865 6.45469 0.223969C5.68068 0.355146 4.93092 0.602451 4.23077 0.957522C3.53147 1.3156 2.8925 1.78088 2.33704 2.33649C1.77867 2.89053 1.31322 3.53093 0.958592 4.23307C0.602988 4.9338 0.356412 5.68471 0.227378 6.45984C0.097118 7.234 0.0270238 8.01708 0.0177246 8.80206C0.00686756 9.16077 0.00572102 9.52066 0 9.87942V36.9218C0.00572102 37.285 0.00686756 37.6369 0.0177246 38.0003C0.0270266 38.7853 0.0971208 39.5683 0.227378 40.3424C0.356055 41.118 0.602647 41.8694 0.958592 42.5704C1.31306 43.2702 1.77857 43.908 2.33704 44.459C2.89039 45.0171 3.52978 45.4827 4.23077 45.838C4.93092 46.194 5.68059 46.4428 6.45469 46.576C7.22991 46.7034 8.01358 46.7725 8.79913 46.7828C9.16075 46.7908 9.51607 46.7954 9.87425 46.7954C10.3021 46.7977 10.726 46.7977 11.155 46.7977H128.851C129.272 46.7977 129.699 46.7977 130.119 46.7954C130.476 46.7954 130.842 46.7908 131.198 46.7828C131.982 46.773 132.764 46.7039 133.538 46.576C134.315 46.4419 135.067 46.1931 135.77 45.838C136.471 45.4825 137.11 45.0169 137.662 44.459C138.219 43.9059 138.686 43.2685 139.045 42.5704C139.398 41.8688 139.642 41.1176 139.769 40.3424C139.9 39.5682 139.972 38.7853 139.986 38.0003C139.991 37.6369 139.991 37.285 139.991 36.9218C140 36.4967 140 36.074 140 35.6421V11.1567C140 10.7283 140 10.3033 139.991 9.87942C139.991 9.52066 139.991 9.16077 139.986 8.80202C139.972 8.01697 139.9 7.23406 139.769 6.45979C139.642 5.68511 139.398 4.93426 139.045 4.23302C138.323 2.82567 137.178 1.6801 135.77 0.957417C135.067 0.603214 134.314 0.355974 133.538 0.223863C132.764 0.0949156 131.982 0.0257778 131.198 0.0170644C130.842 0.0113551 130.476 0.0044992 130.119 0.00221781C129.699 -0.00012207 129.272 -0.00012207 128.851 -0.00012207V3.00221e-05Z" fill="black"/>
<path d="M9.87995 45.7739C9.52349 45.7739 9.17565 45.7694 8.82198 45.7614C8.08935 45.7519 7.35842 45.6881 6.6352 45.5706C5.96083 45.4545 5.30755 45.2384 4.69691 44.9296C4.09186 44.6233 3.54002 44.2218 3.0625 43.7402C2.57808 43.2644 2.17477 42.7125 1.86856 42.1064C1.55898 41.4964 1.34474 40.8425 1.23329 40.1676C1.11293 39.4424 1.04781 38.709 1.03849 37.9739C1.03107 37.7272 1.02136 36.9057 1.02136 36.9057V9.87937C1.02136 9.87937 1.0317 9.07046 1.03855 8.83281C1.04747 8.09888 1.11221 7.3667 1.23221 6.6426C1.34387 5.96581 1.55828 5.31005 1.86803 4.69804C2.17311 4.09237 2.57417 3.54006 3.05568 3.06252C3.53665 2.58043 4.09026 2.17678 4.69634 1.86629C5.30558 1.55845 5.95762 1.34393 6.63062 1.22991C7.35622 1.11124 8.08968 1.04708 8.82486 1.03797L9.88052 1.02368H130.114L131.182 1.03854C131.911 1.0472 132.637 1.11078 133.356 1.22876C134.036 1.34422 134.695 1.56024 135.311 1.86971C136.525 2.49545 137.513 3.48543 138.137 4.70089C138.441 5.30868 138.652 5.95909 138.763 6.63003C138.884 7.36008 138.952 8.09801 138.966 8.83796C138.969 9.16928 138.969 9.52518 138.969 9.87937C138.979 10.3181 138.979 10.7357 138.979 11.1567V35.642C138.979 36.0671 138.979 36.4818 138.969 36.8999C138.969 37.2804 138.969 37.6289 138.965 37.9876C138.951 38.7144 138.884 39.4391 138.765 40.1561C138.656 40.8359 138.443 41.4949 138.133 42.1099C137.825 42.7094 137.424 43.2565 136.945 43.7311C136.467 44.2152 135.914 44.6192 135.308 44.9274C134.693 45.2386 134.035 45.4554 133.356 45.5706C132.633 45.6887 131.902 45.7525 131.169 45.7614C130.827 45.7694 130.468 45.7739 130.119 45.7739L128.851 45.7763L9.87995 45.7739Z" fill="#E7FFF7"/>
<path d="M28.9781 23.7506C28.9907 22.7741 29.2501 21.8166 29.7321 20.9673C30.2142 20.118 30.9032 19.4044 31.7352 18.8929C31.2067 18.1381 30.5094 17.517 29.6989 17.0788C28.8883 16.6406 27.9867 16.3974 27.0657 16.3686C25.1011 16.1624 23.1965 17.5442 22.1954 17.5442C21.1749 17.5442 19.6335 16.3891 17.9737 16.4232C16.9 16.4579 15.8537 16.7701 14.9366 17.3294C14.0195 17.8887 13.2629 18.676 12.7406 19.6146C10.4779 23.5321 12.1657 29.2894 14.3331 32.456C15.4175 34.0066 16.6849 35.7386 18.3433 35.6772C19.966 35.6099 20.5721 34.6424 22.5309 34.6424C24.4716 34.6424 25.0402 35.6772 26.7322 35.6382C28.4735 35.6099 29.5706 34.0807 30.617 32.5154C31.3962 31.4106 31.9957 30.1895 32.3935 28.8974C31.3818 28.4695 30.5185 27.7533 29.9112 26.838C29.3038 25.9228 28.9793 24.849 28.9781 23.7506Z" fill="#333333"/>
<path d="M25.7823 14.286C26.7317 13.1463 27.1995 11.6813 27.0862 10.2022C25.6357 10.3546 24.2958 11.0478 23.3335 12.1439C22.8631 12.6793 22.5027 13.3022 22.2731 13.977C22.0435 14.6518 21.9492 15.3652 21.9955 16.0765C22.721 16.084 23.4388 15.9267 24.0947 15.6166C24.7506 15.3064 25.3277 14.8515 25.7823 14.286Z" fill="#333333"/>
<path d="M49.4911 31.7518H43.9533L42.6234 35.6787H40.2778L45.5232 21.1503H47.9601L53.2055 35.6787H50.8199L49.4911 31.7518ZM44.5269 29.9398H48.9165L46.7525 23.5668H46.692L44.5269 29.9398Z" fill="#333333"/>
<path d="M64.5336 30.3831C64.5336 33.6747 62.7718 35.7895 60.1132 35.7895C59.4397 35.8247 58.7699 35.6696 58.1805 35.3418C57.5911 35.0141 57.1059 34.527 56.7804 33.9363H56.7301V39.1828H54.5559V25.0864H56.6605V26.8481H56.7005C57.0409 26.2603 57.5343 25.7757 58.1282 25.4459C58.7221 25.1162 59.3942 24.9536 60.0732 24.9755C62.7615 24.9755 64.5336 27.1006 64.5336 30.3831ZM62.2988 30.3831C62.2988 28.2386 61.1906 26.8287 59.4996 26.8287C57.8384 26.8287 56.721 28.2683 56.721 30.3831C56.721 32.5173 57.8384 33.9466 59.4996 33.9466C61.1906 33.9466 62.2988 32.547 62.2988 30.3831Z" fill="#333333"/>
<path d="M76.1918 30.3831C76.1918 33.6747 74.43 35.7895 71.7714 35.7895C71.0979 35.8247 70.4281 35.6696 69.8387 35.3418C69.2493 35.0141 68.7641 34.527 68.4386 33.9363H68.3883V39.1828H66.2141V25.0863H68.3186V26.8481H68.3586C68.699 26.2603 69.1924 25.7757 69.7863 25.4459C70.3802 25.1162 71.0524 24.9536 71.7313 24.9755C74.4197 24.9755 76.1918 27.1006 76.1918 30.3831ZM73.957 30.3831C73.957 28.2386 72.8488 26.8287 71.1578 26.8287C69.4966 26.8287 68.3792 28.2683 68.3792 30.3831C68.3792 32.5173 69.4966 33.9466 71.1578 33.9466C72.8488 33.9466 73.957 32.547 73.957 30.3831H73.957Z" fill="#333333"/>
<path d="M83.8971 31.6307C84.0582 33.0714 85.4578 34.0174 87.3703 34.0174C89.2029 34.0174 90.5214 33.0714 90.5214 31.7723C90.5214 30.6447 89.7262 29.9694 87.8433 29.5067L85.9605 29.0531C83.2927 28.4087 82.0542 27.1611 82.0542 25.1366C82.0542 22.6299 84.2387 20.9081 87.3406 20.9081C90.4105 20.9081 92.5151 22.6299 92.5859 25.1366H90.3911C90.2597 23.6867 89.0612 22.8115 87.3097 22.8115C85.5583 22.8115 84.3597 23.697 84.3597 24.9857C84.3597 26.0129 85.1252 26.6173 86.9978 27.0799L88.5985 27.473C91.5793 28.1779 92.8178 29.3753 92.8178 31.5004C92.8178 34.2184 90.6527 35.9208 87.2092 35.9208C83.9873 35.9208 81.8119 34.2584 81.6714 31.6306L83.8971 31.6307Z" fill="#333333"/>
<path d="M97.5101 22.5797V25.0863H99.5244V26.8081H97.5101V32.6475C97.5101 33.5547 97.9135 33.9774 98.7989 33.9774C99.038 33.9733 99.2768 33.9565 99.5141 33.9271V35.6386C99.116 35.713 98.7114 35.7467 98.3065 35.7392C96.162 35.7392 95.3256 34.9337 95.3256 32.8794V26.8081H93.7855V25.0863H95.3256V22.5797H97.5101Z" fill="#333333"/>
<path d="M100.691 30.3831C100.691 27.0504 102.654 24.9561 105.715 24.9561C108.786 24.9561 110.739 27.0503 110.739 30.3831C110.739 33.725 108.796 35.8101 105.715 35.8101C102.634 35.8101 100.691 33.725 100.691 30.3831ZM108.524 30.3831C108.524 28.0969 107.476 26.7476 105.715 26.7476C103.953 26.7476 102.906 28.1072 102.906 30.3831C102.906 32.6784 103.953 34.0175 105.715 34.0175C107.476 34.0175 108.524 32.6784 108.524 30.3831H108.524Z" fill="#333333"/>
<path d="M112.532 25.0863H114.606V26.8892H114.656C114.796 26.3261 115.126 25.8285 115.59 25.48C116.054 25.1315 116.624 24.9533 117.204 24.9755C117.454 24.9746 117.704 25.0018 117.949 25.0566V27.0903C117.632 26.9936 117.302 26.9492 116.972 26.9589C116.656 26.9461 116.341 27.0018 116.049 27.1221C115.756 27.2425 115.494 27.4247 115.278 27.6562C115.063 27.8878 114.901 28.1631 114.802 28.4634C114.703 28.7637 114.67 29.0818 114.706 29.3959V35.6786H112.532L112.532 25.0863Z" fill="#333333"/>
<path d="M127.973 32.5676C127.681 34.4904 125.808 35.8101 123.412 35.8101C120.331 35.8101 118.418 33.7455 118.418 30.4334C118.418 27.1109 120.341 24.9561 123.321 24.9561C126.251 24.9561 128.094 26.9692 128.094 30.1809V30.9258H120.613V31.0572C120.579 31.447 120.627 31.8397 120.756 32.2092C120.885 32.5787 121.091 32.9166 121.361 33.2004C121.63 33.4841 121.957 33.7073 122.319 33.8551C122.682 34.0029 123.071 34.0718 123.463 34.0574C123.976 34.1056 124.492 33.9866 124.933 33.7181C125.373 33.4497 125.716 33.0462 125.909 32.5676L127.973 32.5676ZM120.623 29.4062H125.919C125.938 29.0557 125.885 28.705 125.763 28.376C125.64 28.047 125.451 27.7468 125.207 27.4944C124.963 27.242 124.67 27.0427 124.345 26.9091C124.021 26.7754 123.672 26.7103 123.321 26.7179C122.967 26.7158 122.616 26.7838 122.288 26.918C121.961 27.0523 121.663 27.2501 121.412 27.5C121.161 27.75 120.962 28.0471 120.827 28.3743C120.692 28.7014 120.622 29.0522 120.623 29.4062V29.4062Z" fill="#333333"/>
<path d="M44.2545 10.2148C44.7103 10.1821 45.1677 10.2509 45.5937 10.4164C46.0197 10.5819 46.4036 10.8398 46.7178 11.1716C47.0321 11.5035 47.2687 11.9009 47.4108 12.3353C47.5528 12.7696 47.5967 13.2301 47.5392 13.6835C47.5392 15.9137 46.3338 17.1956 44.2545 17.1956H41.7329V10.2148H44.2545ZM42.8172 16.2084H44.1333C44.4591 16.2279 44.785 16.1744 45.0875 16.0521C45.39 15.9297 45.6613 15.7414 45.8819 15.5009C46.1024 15.2604 46.2665 14.9737 46.3623 14.6618C46.4581 14.3499 46.4831 14.0205 46.4355 13.6977C46.4796 13.3761 46.4521 13.0488 46.3548 12.7392C46.2576 12.4295 46.0931 12.1452 45.873 11.9067C45.653 11.6681 45.3829 11.4811 45.0822 11.3592C44.7814 11.2372 44.4574 11.1833 44.1333 11.2013H42.8172V16.2084Z" fill="#333333"/>
<path d="M48.7639 14.5592C48.7308 14.213 48.7704 13.8637 48.8802 13.5337C48.99 13.2036 49.1676 12.9002 49.4015 12.6429C49.6354 12.3855 49.9205 12.1799 50.2386 12.0391C50.5566 11.8984 50.9006 11.8257 51.2484 11.8257C51.5961 11.8257 51.9401 11.8984 52.2581 12.0391C52.5762 12.1799 52.8613 12.3855 53.0952 12.6429C53.3292 12.9002 53.5067 13.2036 53.6165 13.5337C53.7263 13.8637 53.7659 14.213 53.7328 14.5592C53.7665 14.9057 53.7274 15.2555 53.6179 15.5861C53.5084 15.9166 53.331 16.2206 53.097 16.4784C52.863 16.7363 52.5777 16.9424 52.2593 17.0834C51.9409 17.2244 51.5966 17.2973 51.2484 17.2973C50.9002 17.2973 50.5558 17.2244 50.2374 17.0834C49.9191 16.9424 49.6337 16.7363 49.3997 16.4784C49.1658 16.2206 48.9883 15.9166 48.8788 15.5861C48.7693 15.2555 48.7302 14.9057 48.7639 14.5592ZM52.6634 14.5592C52.6634 13.4172 52.1504 12.7494 51.2501 12.7494C50.3463 12.7494 49.838 13.4172 49.838 14.5592C49.838 15.7103 50.3464 16.3729 51.2501 16.3729C52.1504 16.3729 52.6634 15.7057 52.6634 14.5592H52.6634Z" fill="#333333"/>
<path d="M60.3377 17.1955H59.2591L58.1703 13.3155H58.0881L57.0038 17.1955H55.9355L54.4834 11.9273H55.5379L56.4817 15.9472H56.5594L57.6425 11.9273H58.6399L59.723 15.9472H59.8053L60.7444 11.9273H61.7841L60.3377 17.1955Z" fill="#333333"/>
<path d="M63.0055 11.9273H64.0063V12.7642H64.084C64.2158 12.4636 64.4381 12.2117 64.7199 12.0434C65.0017 11.8752 65.329 11.799 65.6561 11.8256C65.9125 11.8063 66.1699 11.845 66.4092 11.9387C66.6486 12.0324 66.8638 12.1788 67.0389 12.367C67.2141 12.5551 67.3446 12.7803 67.4209 13.0258C67.4972 13.2713 67.5172 13.5308 67.4796 13.785V17.1954H66.4399V14.0461C66.4399 13.1995 66.072 12.7785 65.3031 12.7785C65.1291 12.7704 64.9553 12.8 64.7938 12.8653C64.6323 12.9306 64.4868 13.0301 64.3673 13.1569C64.2479 13.2837 64.1572 13.4349 64.1016 13.6C64.046 13.7651 64.0267 13.9403 64.0452 14.1135V17.1955H63.0055L63.0055 11.9273Z" fill="#333333"/>
<path d="M69.1362 9.87079H70.1759V17.1955H69.1362V9.87079Z" fill="#333333"/>
<path d="M71.6212 14.5591C71.5881 14.2129 71.6278 13.8636 71.7376 13.5336C71.8474 13.2036 72.025 12.9001 72.2589 12.6428C72.4928 12.3854 72.778 12.1797 73.0961 12.039C73.4141 11.8983 73.7581 11.8256 74.1059 11.8256C74.4537 11.8256 74.7977 11.8983 75.1158 12.039C75.4338 12.1797 75.719 12.3854 75.9529 12.6428C76.1869 12.9001 76.3645 13.2036 76.4743 13.5336C76.5841 13.8636 76.6237 14.2129 76.5906 14.5591C76.6243 14.9057 76.5852 15.2555 76.4756 15.5861C76.3661 15.9166 76.1886 16.2206 75.9546 16.4784C75.7206 16.7363 75.4353 16.9423 75.1169 17.0834C74.7985 17.2244 74.4541 17.2972 74.1059 17.2972C73.7577 17.2972 73.4133 17.2244 73.095 17.0834C72.7766 16.9423 72.4912 16.7363 72.2572 16.4784C72.0232 16.2206 71.8457 15.9166 71.7362 15.5861C71.6267 15.2555 71.5875 14.9057 71.6212 14.5591ZM75.5206 14.5591C75.5206 13.4172 75.0076 12.7494 74.1073 12.7494C73.2036 12.7494 72.6952 13.4172 72.6952 14.5592C72.6952 15.7103 73.2036 16.3729 74.1073 16.3729C75.0077 16.3729 75.5206 15.7057 75.5206 14.5591H75.5206Z" fill="#333333"/>
<path d="M77.6852 15.7057C77.6852 14.7574 78.3913 14.2107 79.6446 14.133L81.0716 14.0507V13.596C81.0716 13.0396 80.7037 12.7254 79.9931 12.7254C79.4127 12.7254 79.0105 12.9385 78.8951 13.311H77.8885C77.9948 12.4061 78.846 11.8257 80.0411 11.8257C81.3618 11.8257 82.1067 12.4832 82.1067 13.596V17.1955H81.1059V16.4552H81.0236C80.8567 16.7207 80.6222 16.9372 80.3442 17.0826C80.0662 17.2279 79.7546 17.2968 79.4412 17.2823C79.2201 17.3053 78.9966 17.2817 78.7851 17.2131C78.5736 17.1444 78.3789 17.0322 78.2134 16.8836C78.048 16.7351 77.9155 16.5535 77.8245 16.3506C77.7335 16.1477 77.6861 15.928 77.6852 15.7057ZM81.0716 15.2555V14.8151L79.7851 14.8973C79.0596 14.9459 78.7306 15.1927 78.7306 15.6571C78.7306 16.1313 79.1419 16.4072 79.7075 16.4072C79.8732 16.424 80.0406 16.4072 80.1997 16.358C80.3588 16.3087 80.5064 16.228 80.6337 16.1205C80.761 16.0131 80.8653 15.8811 80.9406 15.7325C81.0158 15.5839 81.0604 15.4217 81.0716 15.2555Z" fill="#333333"/>
<path d="M83.4731 14.5591C83.4731 12.8945 84.3289 11.8399 85.6599 11.8399C85.9892 11.8248 86.3159 11.9036 86.602 12.0673C86.8881 12.231 87.1217 12.4727 87.2755 12.7642H87.3532V9.87079H88.3928V17.1955H87.3966V16.3632H87.3143C87.1486 16.6527 86.9069 16.8914 86.6153 17.0534C86.3237 17.2154 85.9933 17.2946 85.6599 17.2823C84.3198 17.2824 83.4731 16.2278 83.4731 14.5591ZM84.5472 14.5591C84.5472 15.6765 85.0739 16.3489 85.9547 16.3489C86.831 16.3489 87.3726 15.6668 87.3726 14.5637C87.3726 13.4657 86.8253 12.774 85.9547 12.774C85.0795 12.774 84.5471 13.4509 84.5471 14.5591H84.5472Z" fill="#333333"/>
<path d="M92.6945 14.5592C92.6614 14.213 92.701 13.8637 92.8108 13.5337C92.9205 13.2036 93.0981 12.9002 93.332 12.6429C93.5659 12.3855 93.8511 12.1799 94.1691 12.0391C94.4872 11.8984 94.8311 11.8257 95.1789 11.8257C95.5267 11.8257 95.8706 11.8984 96.1887 12.0391C96.5067 12.1799 96.7919 12.3855 97.0258 12.6429C97.2597 12.9002 97.4373 13.2036 97.547 13.5337C97.6568 13.8637 97.6964 14.213 97.6633 14.5592C97.6971 14.9057 97.6579 15.2555 97.5484 15.5861C97.4389 15.9166 97.2615 16.2206 97.0275 16.4784C96.7935 16.7363 96.5082 16.9424 96.1898 17.0834C95.8715 17.2244 95.5271 17.2973 95.1789 17.2973C94.8307 17.2973 94.4863 17.2244 94.168 17.0834C93.8496 16.9424 93.5643 16.7363 93.3303 16.4784C93.0963 16.2206 92.9189 15.9166 92.8094 15.5861C92.6999 15.2555 92.6607 14.9057 92.6945 14.5592ZM96.5939 14.5592C96.5939 13.4172 96.0809 12.7494 95.1806 12.7494C94.2769 12.7494 93.7685 13.4172 93.7685 14.5592C93.7685 15.7103 94.2769 16.3729 95.1806 16.3729C96.0809 16.3729 96.5939 15.7057 96.5939 14.5592Z" fill="#333333"/>
<path d="M99.0583 11.9273H100.059V12.7642H100.137C100.269 12.4636 100.491 12.2117 100.773 12.0434C101.055 11.8752 101.382 11.799 101.709 11.8256C101.965 11.8063 102.223 11.845 102.462 11.9387C102.701 12.0324 102.917 12.1788 103.092 12.367C103.267 12.5551 103.397 12.7803 103.474 13.0258C103.55 13.2713 103.57 13.5308 103.532 13.785V17.1954H102.493V14.0461C102.493 13.1995 102.125 12.7785 101.356 12.7785C101.182 12.7704 101.008 12.8 100.847 12.8653C100.685 12.9306 100.54 13.0301 100.42 13.1569C100.301 13.2837 100.21 13.4349 100.154 13.6C100.099 13.7651 100.08 13.9403 100.098 14.1135V17.1955H99.0583V11.9273Z" fill="#333333"/>
<path d="M109.407 10.6157V11.9513H110.549V12.8271H109.407V15.536C109.407 16.0878 109.635 16.3295 110.152 16.3295C110.285 16.329 110.417 16.321 110.549 16.3055V17.1715C110.362 17.2049 110.173 17.2227 109.983 17.2246C108.827 17.2246 108.366 16.8179 108.366 15.8022V12.827H107.53V11.9513H108.366V10.6157H109.407Z" fill="#333333"/>
<path d="M111.969 9.87079H112.999V12.7739H113.082C113.22 12.4706 113.448 12.2172 113.736 12.0483C114.023 11.8794 114.356 11.8033 114.688 11.8302C114.943 11.8163 115.198 11.8589 115.435 11.9549C115.671 12.0509 115.884 12.1979 116.057 12.3855C116.23 12.5731 116.36 12.7966 116.437 13.0401C116.514 13.2836 116.536 13.5411 116.502 13.7942V17.1955H115.462V14.0507C115.462 13.2092 115.07 12.7831 114.335 12.7831C114.156 12.7684 113.977 12.793 113.808 12.855C113.64 12.9171 113.488 13.0152 113.361 13.1424C113.235 13.2696 113.138 13.4229 113.077 13.5915C113.016 13.7602 112.993 13.9401 113.009 14.1187V17.1955H111.969L111.969 9.87079Z" fill="#333333"/>
<path d="M122.565 15.7731C122.423 16.2545 122.117 16.671 121.7 16.9496C121.283 17.2283 120.781 17.3513 120.282 17.2972C119.935 17.3063 119.59 17.2399 119.271 17.1024C118.952 16.9649 118.667 16.7596 118.436 16.5009C118.204 16.2422 118.032 15.9362 117.93 15.6041C117.829 15.2721 117.801 14.9219 117.848 14.578C117.802 14.233 117.83 13.8821 117.932 13.549C118.033 13.216 118.204 12.9086 118.435 12.6476C118.665 12.3866 118.949 12.1781 119.267 12.0363C119.585 11.8945 119.929 11.8227 120.277 11.8256C121.743 11.8256 122.627 12.8271 122.627 14.4814V14.8442H118.907V14.9025C118.891 15.0958 118.915 15.2904 118.979 15.4738C119.042 15.6572 119.143 15.8253 119.275 15.9674C119.407 16.1095 119.568 16.2224 119.746 16.2989C119.924 16.3754 120.116 16.4138 120.31 16.4117C120.559 16.4415 120.811 16.3968 121.034 16.283C121.257 16.1693 121.442 15.9918 121.564 15.773L122.565 15.7731ZM118.907 14.0753H121.568C121.581 13.8985 121.557 13.7209 121.498 13.5539C121.438 13.3869 121.344 13.2343 121.222 13.1057C121.1 12.9772 120.952 12.8757 120.789 12.8076C120.625 12.7395 120.449 12.7065 120.272 12.7105C120.092 12.7083 119.913 12.742 119.747 12.8098C119.58 12.8776 119.429 12.9781 119.302 13.1053C119.175 13.2324 119.074 13.3838 119.006 13.5504C118.939 13.717 118.905 13.8955 118.907 14.0753H118.907Z" fill="#333333"/>
</svg>
